<svg width="17" height="16" viewBox="0 0 17 16" fill="none" xmlns="http://www.w3.org/2000/svg">
<path d="M8.50002 14.6667C7.53197 14.6667 6.61703 14.4916 5.75523 14.1413C4.89342 13.7911 4.1407 13.3133 3.49706 12.708C2.8539 12.1027 2.34626 11.3945 1.97415 10.5833C1.60204 9.77223 1.41622 8.91112 1.41669 8.00001C1.41669 7.07779 1.60274 6.21379 1.97485 5.40801C2.34697 4.60223 2.8546 3.8969 3.49777 3.29201C4.14094 2.68623 4.89319 2.20845 5.75452 1.85868C6.61585 1.5089 7.53102 1.33379 8.50002 1.33334C9.47988 1.33334 10.3979 1.50845 11.254 1.85868C12.1102 2.2089 12.8596 2.68668 13.5023 3.29201C14.1459 3.89734 14.6535 4.6029 15.0252 5.40868C15.3968 6.21445 15.5829 7.07823 15.5834 8.00001V8.96668C15.5834 9.62223 15.3444 10.1807 14.8665 10.642C14.3886 11.1033 13.8012 11.3338 13.1042 11.3333C12.6792 11.3333 12.2837 11.2445 11.9177 11.0667C11.5518 10.8889 11.2507 10.6556 11.0146 10.3667C10.6959 10.6667 10.3209 10.9029 9.88977 11.0753C9.45863 11.2478 8.99538 11.3338 8.50002 11.3333C7.52016 11.3333 6.6848 11.0082 5.99394 10.358C5.30308 9.70779 4.95788 8.92179 4.95835 8.00001C4.95835 7.07779 5.30379 6.29157 5.99465 5.64134C6.68551 4.99112 7.52063 4.66623 8.50002 4.66668C9.47988 4.66668 10.3152 4.99179 11.0061 5.64201C11.697 6.29223 12.0422 7.07823 12.0417 8.00001V8.96668C12.0417 9.2889 12.1479 9.54157 12.3604 9.72468C12.5729 9.90779 12.8209 9.99957 13.1042 10C13.3875 10 13.6354 9.90823 13.8479 9.72468C14.0604 9.54112 14.1667 9.28845 14.1667 8.96668V8.00001C14.1667 6.54445 13.6088 5.29157 12.4929 4.24134C11.377 3.19112 10.0461 2.66623 8.50002 2.66668C6.95349 2.66668 5.6223 3.19179 4.50644 4.24201C3.39058 5.29223 2.83288 6.5449 2.83335 8.00001C2.83335 9.45557 3.39129 10.7085 4.50715 11.7587C5.62301 12.8089 6.95397 13.3338 8.50002 13.3333H11.3334C11.534 13.3333 11.7024 13.3973 11.8384 13.5253C11.9744 13.6533 12.0422 13.8116 12.0417 14C12.0417 14.1889 11.9737 14.3473 11.8377 14.4753C11.7017 14.6033 11.5336 14.6671 11.3334 14.6667H8.50002ZM8.50002 10C9.0903 10 9.59203 9.80557 10.0052 9.41668C10.4184 9.02779 10.625 8.55557 10.625 8.00001C10.625 7.44445 10.4184 6.97223 10.0052 6.58334C9.59203 6.19445 9.0903 6.00001 8.50002 6.00001C7.90974 6.00001 7.40801 6.19445 6.99481 6.58334C6.58162 6.97223 6.37502 7.44445 6.37502 8.00001C6.37502 8.55557 6.58162 9.02779 6.99481 9.41668C7.40801 9.80557 7.90974 10 8.50002 10Z" fill="#3A74B4"/>
</svg>
